<svg xmlns="http://www.w3.org/2000/svg" xmlns:xlink="http://www.w3.org/1999/xlink" width="2000" zoomAndPan="magnify" viewBox="0 0 1500 1499.999933" height="2000" preserveAspectRatio="xMidYMid meet" version="1.0"><path fill="#000000" d="M 1242.1875 1171.875 C 1242.175781 1174.574219 1242.113281 1177.273438 1242 1179.972656 C 1241.882812 1182.671875 1241.71875 1185.367188 1241.5 1188.058594 C 1241.28125 1190.75 1241.011719 1193.4375 1240.691406 1196.117188 C 1240.367188 1198.800781 1239.996094 1201.472656 1239.570312 1204.140625 C 1239.148438 1206.808594 1238.671875 1209.464844 1238.144531 1212.113281 C 1237.621094 1214.761719 1237.042969 1217.402344 1236.414062 1220.027344 C 1235.789062 1222.652344 1235.109375 1225.269531 1234.382812 1227.867188 C 1233.65625 1230.46875 1232.878906 1233.054688 1232.050781 1235.625 C 1231.222656 1238.195312 1230.347656 1240.75 1229.421875 1243.289062 C 1228.496094 1245.824219 1227.523438 1248.34375 1226.5 1250.84375 C 1225.476562 1253.34375 1224.410156 1255.820312 1223.292969 1258.28125 C 1222.171875 1260.738281 1221.007812 1263.175781 1219.800781 1265.589844 C 1218.589844 1268.003906 1217.332031 1270.394531 1216.027344 1272.757812 C 1214.726562 1275.125 1213.378906 1277.464844 1211.984375 1279.777344 C 1210.59375 1282.09375 1209.15625 1284.378906 1207.675781 1286.636719 C 1206.195312 1288.894531 1204.671875 1291.125 1203.105469 1293.324219 C 1201.542969 1295.527344 1199.933594 1297.695312 1198.285156 1299.832031 C 1196.636719 1301.972656 1194.945312 1304.078125 1193.214844 1306.152344 C 1191.484375 1308.226562 1189.714844 1310.265625 1187.90625 1312.269531 C 1186.097656 1314.277344 1184.253906 1316.246094 1182.367188 1318.179688 C 1180.484375 1320.117188 1178.5625 1322.015625 1176.605469 1323.875 C 1174.648438 1325.734375 1172.65625 1327.558594 1170.628906 1329.34375 C 1168.601562 1331.128906 1166.542969 1332.871094 1164.449219 1334.578125 C 1162.355469 1336.28125 1160.226562 1337.949219 1158.070312 1339.570312 C 1155.914062 1341.195312 1153.722656 1342.777344 1151.503906 1344.316406 C 1149.285156 1345.855469 1147.039062 1347.351562 1144.761719 1348.804688 C 1142.484375 1350.257812 1140.183594 1351.667969 1137.851562 1353.03125 C 1135.523438 1354.398438 1133.167969 1355.714844 1130.785156 1356.992188 C 1128.40625 1358.265625 1126 1359.492188 1123.570312 1360.675781 C 1121.144531 1361.855469 1118.691406 1362.992188 1116.222656 1364.078125 C 1113.75 1365.167969 1111.257812 1366.207031 1108.746094 1367.199219 C 1106.234375 1368.191406 1103.703125 1369.136719 1101.15625 1370.03125 C 1098.609375 1370.925781 1096.042969 1371.769531 1093.464844 1372.566406 C 1090.882812 1373.363281 1088.289062 1374.109375 1085.679688 1374.808594 C 1083.070312 1375.503906 1080.449219 1376.152344 1077.816406 1376.746094 C 1075.179688 1377.34375 1072.535156 1377.890625 1069.882812 1378.382812 C 1067.226562 1378.878906 1064.5625 1379.320312 1061.890625 1379.714844 C 1059.21875 1380.105469 1056.539062 1380.445312 1053.855469 1380.734375 C 1051.171875 1381.027344 1048.480469 1381.261719 1045.785156 1381.449219 C 1043.09375 1381.636719 1040.394531 1381.769531 1037.695312 1381.851562 C 1034.996094 1381.933594 1032.296875 1381.964844 1029.597656 1381.945312 C 1026.894531 1381.921875 1024.195312 1381.851562 1021.5 1381.726562 C 1018.800781 1381.601562 1016.105469 1381.425781 1013.417969 1381.195312 C 1010.726562 1380.96875 1008.039062 1380.6875 1005.359375 1380.355469 C 1002.679688 1380.023438 1000.007812 1379.640625 997.339844 1379.207031 C 994.675781 1378.773438 992.019531 1378.289062 989.371094 1377.75 C 986.726562 1377.214844 984.089844 1376.628906 981.464844 1375.992188 C 978.839844 1375.355469 976.230469 1374.667969 973.632812 1373.929688 C 971.035156 1373.191406 968.453125 1372.402344 965.882812 1371.566406 C 963.316406 1370.730469 960.765625 1369.84375 958.230469 1368.910156 C 955.699219 1367.972656 953.183594 1366.992188 950.6875 1365.960938 C 948.191406 1364.929688 945.71875 1363.847656 943.261719 1362.722656 C 940.808594 1361.597656 938.375 1360.421875 935.96875 1359.203125 C 933.558594 1357.984375 931.171875 1356.71875 928.8125 1355.40625 C 926.449219 1354.09375 924.117188 1352.738281 921.808594 1351.335938 C 919.5 1349.9375 917.21875 1348.492188 914.964844 1347 C 912.710938 1345.511719 910.488281 1343.980469 908.292969 1342.40625 C 906.097656 1340.832031 903.9375 1339.21875 901.804688 1337.558594 C 899.671875 1335.902344 897.570312 1334.207031 895.503906 1332.46875 C 893.4375 1330.730469 891.40625 1328.953125 889.40625 1327.136719 C 887.40625 1325.320312 885.445312 1323.464844 883.515625 1321.574219 C 881.589844 1319.683594 879.699219 1317.757812 877.84375 1315.792969 C 875.992188 1313.828125 874.175781 1311.828125 872.398438 1309.796875 C 870.621094 1307.761719 868.886719 1305.695312 867.1875 1303.59375 C 866.632812 1303.003906 866.109375 1302.390625 865.617188 1301.746094 C 865.125 1301.105469 864.667969 1300.4375 864.246094 1299.746094 C 863.824219 1299.058594 863.4375 1298.347656 863.085938 1297.617188 C 862.738281 1296.886719 862.429688 1296.140625 862.15625 1295.378906 C 861.882812 1294.617188 861.652344 1293.84375 861.460938 1293.058594 C 861.269531 1292.269531 861.117188 1291.476562 861.007812 1290.675781 C 860.898438 1289.875 860.832031 1289.066406 860.804688 1288.257812 C 860.78125 1287.449219 860.796875 1286.644531 860.851562 1285.835938 C 860.910156 1285.027344 861.011719 1284.226562 861.152344 1283.429688 C 861.292969 1282.632812 861.472656 1281.84375 861.695312 1281.066406 C 861.917969 1280.289062 862.179688 1279.523438 862.480469 1278.773438 C 862.78125 1278.023438 863.121094 1277.289062 863.5 1276.574219 C 863.878906 1275.859375 864.289062 1275.164062 864.738281 1274.492188 C 865.1875 1273.816406 865.671875 1273.167969 866.1875 1272.546875 C 866.703125 1271.925781 867.253906 1271.328125 867.832031 1270.761719 C 868.410156 1270.195312 869.015625 1269.660156 869.648438 1269.160156 C 870.28125 1268.65625 870.9375 1268.183594 871.621094 1267.75 C 872.304688 1267.316406 873.003906 1266.914062 873.730469 1266.554688 C 874.453125 1266.191406 875.191406 1265.867188 875.949219 1265.582031 C 876.707031 1265.292969 877.476562 1265.046875 878.257812 1264.84375 C 879.042969 1264.636719 879.832031 1264.46875 880.632812 1264.347656 C 881.429688 1264.222656 882.234375 1264.140625 883.042969 1264.097656 C 883.851562 1264.058594 884.660156 1264.058594 885.46875 1264.101562 C 886.277344 1264.144531 887.078125 1264.226562 887.878906 1264.355469 C 888.679688 1264.480469 889.46875 1264.648438 890.25 1264.855469 C 891.03125 1265.0625 891.800781 1265.308594 892.558594 1265.597656 C 893.316406 1265.886719 894.054688 1266.210938 894.777344 1266.574219 C 895.5 1266.9375 896.203125 1267.339844 896.882812 1267.777344 C 897.5625 1268.214844 898.222656 1268.683594 898.851562 1269.1875 C 899.484375 1269.695312 900.089844 1270.230469 900.667969 1270.796875 C 901.242188 1271.363281 901.789062 1271.960938 902.304688 1272.585938 C 902.820312 1273.207031 903.300781 1273.855469 903.75 1274.53125 C 905.675781 1276.9375 907.671875 1279.289062 909.730469 1281.582031 C 911.789062 1283.875 913.914062 1286.109375 916.097656 1288.285156 C 918.28125 1290.457031 920.527344 1292.570312 922.832031 1294.617188 C 925.136719 1296.664062 927.496094 1298.644531 929.914062 1300.558594 C 932.332031 1302.476562 934.796875 1304.320312 937.320312 1306.09375 C 939.839844 1307.871094 942.40625 1309.574219 945.023438 1311.203125 C 947.640625 1312.835938 950.300781 1314.390625 953.003906 1315.871094 C 955.707031 1317.351562 958.449219 1318.757812 961.234375 1320.082031 C 964.015625 1321.410156 966.835938 1322.65625 969.6875 1323.820312 C 972.542969 1324.988281 975.425781 1326.074219 978.339844 1327.082031 C 981.253906 1328.085938 984.195312 1329.007812 987.164062 1329.84375 C 990.128906 1330.683594 993.117188 1331.4375 996.125 1332.109375 C 999.136719 1332.78125 1002.160156 1333.367188 1005.203125 1333.867188 C 1008.246094 1334.363281 1011.296875 1334.777344 1014.363281 1335.105469 C 1017.429688 1335.433594 1020.5 1335.675781 1023.582031 1335.832031 C 1026.660156 1335.984375 1029.738281 1336.054688 1032.824219 1336.035156 C 1035.90625 1336.015625 1038.984375 1335.910156 1042.0625 1335.714844 C 1045.140625 1335.523438 1048.207031 1335.242188 1051.269531 1334.878906 C 1054.332031 1334.511719 1057.378906 1334.0625 1060.414062 1333.523438 C 1063.449219 1332.984375 1066.46875 1332.363281 1069.46875 1331.65625 C 1072.46875 1330.949219 1075.449219 1330.15625 1078.402344 1329.28125 C 1081.359375 1328.40625 1084.289062 1327.445312 1087.191406 1326.40625 C 1090.09375 1325.367188 1092.960938 1324.242188 1095.800781 1323.042969 C 1098.640625 1321.839844 1101.441406 1320.558594 1104.207031 1319.195312 C 1106.976562 1317.835938 1109.699219 1316.398438 1112.386719 1314.886719 C 1115.070312 1313.371094 1117.710938 1311.78125 1120.308594 1310.121094 C 1122.902344 1308.457031 1125.449219 1306.722656 1127.949219 1304.914062 C 1130.445312 1303.109375 1132.890625 1301.234375 1135.285156 1299.289062 C 1137.675781 1297.34375 1140.011719 1295.335938 1142.292969 1293.257812 C 1144.570312 1291.183594 1146.789062 1289.042969 1148.949219 1286.84375 C 1151.105469 1284.640625 1153.199219 1282.378906 1155.230469 1280.0625 C 1157.261719 1277.742188 1159.226562 1275.367188 1161.125 1272.9375 C 1163.023438 1270.507812 1164.847656 1268.027344 1166.605469 1265.492188 C 1168.363281 1262.960938 1170.046875 1260.378906 1171.660156 1257.75 C 1173.273438 1255.125 1174.808594 1252.453125 1176.269531 1249.738281 C 1177.730469 1247.023438 1179.113281 1244.269531 1180.421875 1241.476562 C 1181.726562 1238.683594 1182.953125 1235.859375 1184.097656 1232.996094 C 1185.246094 1230.132812 1186.3125 1227.242188 1187.292969 1224.320312 C 1188.277344 1221.398438 1189.179688 1218.453125 1189.996094 1215.480469 C 1190.8125 1212.507812 1191.546875 1209.515625 1192.195312 1206.5 C 1192.84375 1203.484375 1193.40625 1200.457031 1193.886719 1197.410156 C 1194.363281 1194.363281 1194.753906 1191.308594 1195.0625 1188.242188 C 1195.367188 1185.171875 1195.585938 1182.097656 1195.71875 1179.019531 C 1195.851562 1175.941406 1195.894531 1172.859375 1195.855469 1169.777344 C 1195.8125 1166.691406 1195.683594 1163.613281 1195.46875 1160.539062 C 1195.253906 1157.464844 1194.953125 1154.394531 1194.566406 1151.339844 C 1194.179688 1148.28125 1193.707031 1145.234375 1193.144531 1142.203125 C 1192.585938 1139.171875 1191.941406 1136.15625 1191.210938 1133.164062 C 1190.484375 1130.167969 1189.671875 1127.195312 1188.773438 1124.246094 C 1187.875 1121.296875 1186.898438 1118.375 1185.835938 1115.480469 C 1184.773438 1112.585938 1183.632812 1109.722656 1182.410156 1106.894531 C 1181.1875 1104.0625 1179.882812 1101.269531 1178.503906 1098.511719 C 1177.125 1095.757812 1175.667969 1093.042969 1174.132812 1090.367188 C 1172.601562 1087.691406 1170.992188 1085.0625 1169.3125 1082.480469 C 1167.628906 1079.894531 1165.875 1077.363281 1164.050781 1074.875 C 1162.226562 1072.390625 1160.332031 1069.960938 1158.371094 1067.582031 C 1156.410156 1065.203125 1154.382812 1062.882812 1152.289062 1060.617188 C 1150.199219 1058.355469 1148.042969 1056.152344 1145.828125 1054.007812 C 1143.609375 1051.867188 1141.335938 1049.789062 1139 1047.773438 C 1136.667969 1045.757812 1134.277344 1043.8125 1131.835938 1041.933594 C 1129.390625 1040.054688 1126.898438 1038.242188 1124.351562 1036.503906 C 1121.804688 1034.765625 1119.214844 1033.101562 1116.574219 1031.507812 C 1113.933594 1029.914062 1111.253906 1028.398438 1108.527344 1026.957031 C 1105.800781 1025.511719 1103.039062 1024.148438 1100.238281 1022.863281 C 1097.433594 1021.578125 1094.597656 1020.371094 1091.730469 1019.246094 C 1088.859375 1018.121094 1085.960938 1017.074219 1083.03125 1016.113281 C 1080.101562 1015.152344 1077.148438 1014.273438 1074.171875 1013.476562 C 1071.191406 1012.679688 1068.195312 1011.96875 1065.175781 1011.339844 C 1062.15625 1010.714844 1059.125 1010.171875 1056.074219 1009.714844 C 1053.027344 1009.261719 1049.964844 1008.890625 1046.894531 1008.605469 C 1043.828125 1008.324219 1040.75 1008.125 1037.671875 1008.015625 C 1034.589844 1007.90625 1031.507812 1007.882812 1028.425781 1007.945312 C 1025.34375 1008.011719 1022.265625 1008.160156 1019.191406 1008.398438 C 1016.117188 1008.636719 1013.054688 1008.957031 1009.996094 1009.367188 C 1006.941406 1009.777344 1003.902344 1010.273438 1000.875 1010.855469 C 997.84375 1011.4375 994.835938 1012.101562 991.847656 1012.851562 C 988.855469 1013.605469 985.890625 1014.4375 982.949219 1015.355469 C 980.003906 1016.273438 977.089844 1017.273438 974.203125 1018.355469 C 971.316406 1019.441406 968.460938 1020.601562 965.640625 1021.847656 C 962.820312 1023.089844 960.035156 1024.410156 957.289062 1025.8125 C 954.542969 1027.210938 951.839844 1028.6875 949.175781 1030.242188 C 946.511719 1031.792969 943.894531 1033.417969 941.324219 1035.121094 C 938.75 1036.820312 936.230469 1038.589844 933.757812 1040.433594 C 931.285156 1042.277344 928.867188 1044.1875 926.503906 1046.164062 C 924.140625 1048.144531 921.832031 1050.1875 919.585938 1052.296875 C 917.335938 1054.40625 915.148438 1056.574219 913.023438 1058.808594 C 910.894531 1061.039062 908.832031 1063.332031 906.835938 1065.679688 C 904.839844 1068.027344 902.910156 1070.429688 901.046875 1072.886719 C 899.183594 1075.34375 897.394531 1077.851562 895.671875 1080.410156 C 893.953125 1082.96875 892.304688 1085.570312 890.730469 1088.222656 C 889.160156 1090.875 887.660156 1093.566406 886.238281 1096.300781 C 884.816406 1099.039062 883.472656 1101.8125 882.207031 1104.621094 C 880.941406 1107.433594 879.757812 1110.277344 878.652344 1113.15625 C 877.546875 1116.035156 876.523438 1118.941406 875.582031 1121.875 C 874.640625 1124.8125 873.78125 1127.769531 873.007812 1130.753906 C 872.234375 1133.738281 871.542969 1136.742188 870.9375 1139.765625 L 880.3125 1130.390625 C 880.855469 1129.851562 881.421875 1129.339844 882.015625 1128.855469 C 882.605469 1128.371094 883.222656 1127.917969 883.859375 1127.496094 C 884.496094 1127.074219 885.152344 1126.679688 885.824219 1126.320312 C 886.5 1125.960938 887.191406 1125.636719 887.898438 1125.34375 C 888.605469 1125.054688 889.324219 1124.796875 890.058594 1124.578125 C 890.789062 1124.355469 891.53125 1124.171875 892.28125 1124.023438 C 893.03125 1123.875 893.785156 1123.761719 894.546875 1123.6875 C 895.308594 1123.613281 896.070312 1123.574219 896.835938 1123.574219 C 897.601562 1123.574219 898.363281 1123.613281 899.125 1123.6875 C 899.886719 1123.761719 900.640625 1123.875 901.390625 1124.023438 C 902.140625 1124.171875 902.882812 1124.355469 903.613281 1124.578125 C 904.347656 1124.796875 905.066406 1125.054688 905.773438 1125.347656 C 906.480469 1125.636719 907.171875 1125.960938 907.847656 1126.320312 C 908.519531 1126.679688 909.175781 1127.074219 909.8125 1127.496094 C 910.449219 1127.917969 911.066406 1128.371094 911.65625 1128.855469 C 912.25 1129.339844 912.816406 1129.851562 913.359375 1130.390625 C 913.90625 1130.933594 914.425781 1131.503906 914.917969 1132.097656 C 915.410156 1132.691406 915.871094 1133.308594 916.300781 1133.949219 C 916.734375 1134.589844 917.128906 1135.25 917.496094 1135.929688 C 917.863281 1136.609375 918.191406 1137.304688 918.488281 1138.015625 C 918.785156 1138.730469 919.046875 1139.453125 919.273438 1140.191406 C 919.496094 1140.929688 919.6875 1141.679688 919.835938 1142.433594 C 919.988281 1143.191406 920.101562 1143.953125 920.179688 1144.722656 C 920.253906 1145.488281 920.292969 1146.257812 920.292969 1147.03125 C 920.292969 1147.804688 920.253906 1148.574219 920.179688 1149.339844 C 920.101562 1150.109375 919.988281 1150.871094 919.835938 1151.628906 C 919.6875 1152.382812 919.496094 1153.132812 919.273438 1153.867188 C 919.046875 1154.605469 918.785156 1155.332031 918.488281 1156.042969 C 918.191406 1156.757812 917.863281 1157.453125 917.496094 1158.132812 C 917.128906 1158.8125 916.734375 1159.472656 916.300781 1160.113281 C 915.871094 1160.753906 915.410156 1161.371094 914.917969 1161.964844 C 914.425781 1162.558594 913.90625 1163.128906 913.359375 1163.671875 L 863.671875 1213.359375 C 862.578125 1214.445312 861.386719 1215.414062 860.101562 1216.265625 C 858.8125 1217.117188 857.457031 1217.832031 856.027344 1218.417969 C 854.601562 1219 853.128906 1219.4375 851.617188 1219.730469 C 850.101562 1220.023438 848.574219 1220.164062 847.03125 1220.15625 C 844.109375 1220.117188 841.296875 1219.550781 838.589844 1218.460938 C 835.878906 1217.367188 833.460938 1215.824219 831.328125 1213.828125 L 781.640625 1164.140625 C 781.097656 1163.59375 780.582031 1163.023438 780.09375 1162.429688 C 779.605469 1161.832031 779.144531 1161.214844 778.71875 1160.574219 C 778.289062 1159.933594 777.894531 1159.273438 777.53125 1158.59375 C 777.171875 1157.914062 776.839844 1157.21875 776.546875 1156.503906 C 776.253906 1155.792969 775.992188 1155.070312 775.769531 1154.332031 C 775.546875 1153.59375 775.359375 1152.847656 775.210938 1152.09375 C 775.0625 1151.335938 774.949219 1150.574219 774.875 1149.808594 C 774.796875 1149.042969 774.761719 1148.273438 774.761719 1147.503906 C 774.761719 1146.734375 774.800781 1145.964844 774.875 1145.199219 C 774.949219 1144.429688 775.0625 1143.671875 775.214844 1142.914062 C 775.363281 1142.160156 775.550781 1141.414062 775.777344 1140.675781 C 776 1139.9375 776.257812 1139.214844 776.554688 1138.503906 C 776.847656 1137.789062 777.179688 1137.09375 777.542969 1136.414062 C 777.90625 1135.738281 778.300781 1135.078125 778.726562 1134.4375 C 779.15625 1133.796875 779.613281 1133.179688 780.101562 1132.582031 C 780.59375 1131.988281 781.109375 1131.417969 781.652344 1130.871094 C 782.199219 1130.328125 782.769531 1129.808594 783.363281 1129.320312 C 783.960938 1128.832031 784.578125 1128.375 785.21875 1127.945312 C 785.859375 1127.519531 786.519531 1127.121094 787.199219 1126.757812 C 787.878906 1126.394531 788.574219 1126.066406 789.285156 1125.773438 C 789.996094 1125.476562 790.71875 1125.21875 791.457031 1124.996094 C 792.195312 1124.769531 792.941406 1124.582031 793.695312 1124.433594 C 794.453125 1124.28125 795.214844 1124.167969 795.980469 1124.09375 C 796.746094 1124.019531 797.515625 1123.980469 798.285156 1123.980469 C 799.054688 1123.980469 799.824219 1124.015625 800.589844 1124.089844 C 801.355469 1124.167969 802.117188 1124.277344 802.875 1124.429688 C 803.628906 1124.578125 804.375 1124.765625 805.113281 1124.988281 C 805.851562 1125.210938 806.574219 1125.472656 807.289062 1125.765625 C 808 1126.058594 808.695312 1126.386719 809.375 1126.75 C 810.054688 1127.113281 810.714844 1127.507812 811.355469 1127.9375 C 811.996094 1128.363281 812.613281 1128.820312 813.210938 1129.308594 C 813.804688 1129.796875 814.375 1130.316406 814.921875 1130.859375 L 824.296875 1140.46875 C 824.902344 1137.328125 825.578125 1134.203125 826.328125 1131.09375 C 827.074219 1127.984375 827.890625 1124.890625 828.78125 1121.820312 C 829.667969 1118.746094 830.625 1115.695312 831.652344 1112.667969 C 832.679688 1109.636719 833.773438 1106.632812 834.9375 1103.652344 C 836.101562 1100.675781 837.332031 1097.722656 838.628906 1094.800781 C 839.929688 1091.875 841.292969 1088.984375 842.722656 1086.121094 C 844.152344 1083.261719 845.644531 1080.433594 847.203125 1077.640625 C 848.761719 1074.847656 850.378906 1072.089844 852.0625 1069.371094 C 853.746094 1066.652344 855.492188 1063.972656 857.296875 1061.332031 C 859.101562 1058.691406 860.96875 1056.09375 862.890625 1053.539062 C 864.8125 1050.984375 866.792969 1048.472656 868.832031 1046.007812 C 870.871094 1043.542969 872.960938 1041.125 875.109375 1038.753906 C 877.257812 1036.382812 879.457031 1034.0625 881.710938 1031.792969 C 883.964844 1029.523438 886.269531 1027.304688 888.621094 1025.140625 C 890.976562 1022.976562 893.378906 1020.863281 895.828125 1018.808594 C 898.277344 1016.753906 900.773438 1014.753906 903.316406 1012.8125 C 905.855469 1010.867188 908.441406 1008.984375 911.066406 1007.160156 C 913.695312 1005.335938 916.359375 1003.570312 919.066406 1001.867188 C 921.773438 1000.164062 924.519531 998.523438 927.300781 996.945312 C 930.082031 995.363281 932.898438 993.851562 935.75 992.398438 C 938.597656 990.949219 941.480469 989.5625 944.394531 988.242188 C 947.308594 986.925781 950.25 985.671875 953.222656 984.484375 C 956.191406 983.300781 959.1875 982.183594 962.207031 981.132812 C 965.230469 980.082031 968.273438 979.101562 971.339844 978.191406 C 974.40625 977.28125 977.492188 976.441406 980.59375 975.667969 C 983.699219 974.898438 986.820312 974.199219 989.953125 973.570312 C 993.089844 972.941406 996.238281 972.382812 999.402344 971.898438 C 1002.5625 971.414062 1005.734375 971 1008.914062 970.660156 C 1012.09375 970.316406 1015.28125 970.046875 1018.472656 969.851562 C 1021.664062 969.65625 1024.859375 969.53125 1028.058594 969.480469 C 1031.257812 969.429688 1034.453125 969.453125 1037.652344 969.546875 C 1040.847656 969.640625 1044.039062 969.808594 1047.230469 970.046875 C 1050.417969 970.289062 1053.601562 970.597656 1056.777344 970.984375 C 1059.953125 971.367188 1063.117188 971.824219 1066.273438 972.351562 C 1069.425781 972.882812 1072.566406 973.480469 1075.695312 974.152344 C 1078.820312 974.824219 1081.933594 975.566406 1085.027344 976.378906 C 1088.117188 977.191406 1091.191406 978.074219 1094.246094 979.027344 C 1097.296875 979.980469 1100.328125 981 1103.335938 982.089844 C 1106.34375 983.183594 1109.324219 984.339844 1112.277344 985.566406 C 1115.230469 986.792969 1118.15625 988.085938 1121.050781 989.445312 C 1123.945312 990.800781 1126.808594 992.226562 1129.640625 993.714844 C 1132.46875 995.207031 1135.265625 996.757812 1138.027344 998.375 C 1140.785156 999.992188 1143.507812 1001.667969 1146.191406 1003.410156 C 1148.875 1005.148438 1151.515625 1006.949219 1154.121094 1008.8125 C 1156.722656 1010.671875 1159.277344 1012.589844 1161.792969 1014.566406 C 1164.308594 1016.542969 1166.777344 1018.578125 1169.199219 1020.664062 C 1171.621094 1022.753906 1173.992188 1024.898438 1176.316406 1027.09375 C 1178.640625 1029.292969 1180.914062 1031.539062 1183.136719 1033.839844 C 1185.359375 1036.140625 1187.527344 1038.492188 1189.644531 1040.890625 C 1191.757812 1043.289062 1193.816406 1045.734375 1195.820312 1048.226562 C 1197.824219 1050.722656 1199.773438 1053.257812 1201.660156 1055.839844 C 1203.550781 1058.421875 1205.378906 1061.042969 1207.148438 1063.707031 C 1208.917969 1066.371094 1210.625 1069.078125 1212.269531 1071.820312 C 1213.917969 1074.558594 1215.5 1077.339844 1217.019531 1080.152344 C 1218.539062 1082.96875 1219.996094 1085.8125 1221.386719 1088.695312 C 1222.777344 1091.574219 1224.101562 1094.484375 1225.359375 1097.425781 C 1226.617188 1100.367188 1227.808594 1103.335938 1228.929688 1106.328125 C 1230.054688 1109.324219 1231.105469 1112.34375 1232.09375 1115.386719 C 1233.078125 1118.429688 1233.996094 1121.492188 1234.839844 1124.578125 C 1235.6875 1127.660156 1236.464844 1130.761719 1237.167969 1133.882812 C 1237.875 1137.003906 1238.507812 1140.136719 1239.070312 1143.285156 C 1239.632812 1146.433594 1240.125 1149.59375 1240.542969 1152.765625 C 1240.960938 1155.9375 1241.308594 1159.113281 1241.582031 1162.300781 C 1241.855469 1165.488281 1242.058594 1168.679688 1242.1875 1171.875 Z M 1031.25 1054.6875 C 1030.480469 1054.6875 1029.714844 1054.726562 1028.953125 1054.800781 C 1028.1875 1054.875 1027.429688 1054.988281 1026.675781 1055.136719 C 1025.925781 1055.289062 1025.179688 1055.472656 1024.445312 1055.695312 C 1023.710938 1055.917969 1022.988281 1056.179688 1022.28125 1056.472656 C 1021.570312 1056.765625 1020.878906 1057.09375 1020.203125 1057.453125 C 1019.523438 1057.816406 1018.867188 1058.210938 1018.230469 1058.636719 C 1017.589844 1059.0625 1016.976562 1059.519531 1016.382812 1060.007812 C 1015.789062 1060.496094 1015.21875 1061.007812 1014.675781 1061.550781 C 1014.132812 1062.09375 1013.621094 1062.664062 1013.132812 1063.257812 C 1012.644531 1063.851562 1012.1875 1064.464844 1011.761719 1065.105469 C 1011.335938 1065.742188 1010.941406 1066.398438 1010.578125 1067.078125 C 1010.21875 1067.753906 1009.890625 1068.445312 1009.597656 1069.15625 C 1009.304688 1069.863281 1009.042969 1070.585938 1008.820312 1071.320312 C 1008.597656 1072.054688 1008.414062 1072.800781 1008.261719 1073.550781 C 1008.113281 1074.304688 1008 1075.0625 1007.925781 1075.828125 C 1007.851562 1076.589844 1007.8125 1077.355469 1007.8125 1078.125 L 1007.8125 1171.875 C 1007.8125 1172.640625 1007.851562 1173.410156 1007.925781 1174.171875 C 1008 1174.9375 1008.113281 1175.695312 1008.261719 1176.445312 C 1008.414062 1177.199219 1008.597656 1177.945312 1008.820312 1178.679688 C 1009.042969 1179.414062 1009.304688 1180.136719 1009.597656 1180.84375 C 1009.890625 1181.554688 1010.21875 1182.246094 1010.578125 1182.921875 C 1010.941406 1183.601562 1011.335938 1184.257812 1011.761719 1184.894531 C 1012.1875 1185.535156 1012.644531 1186.148438 1013.132812 1186.742188 C 1013.621094 1187.335938 1014.132812 1187.90625 1014.675781 1188.449219 C 1015.21875 1188.992188 1015.789062 1189.503906 1016.382812 1189.992188 C 1016.976562 1190.480469 1017.589844 1190.9375 1018.230469 1191.363281 C 1018.867188 1191.789062 1019.523438 1192.183594 1020.203125 1192.542969 C 1020.878906 1192.90625 1021.570312 1193.234375 1022.28125 1193.527344 C 1022.988281 1193.820312 1023.710938 1194.082031 1024.445312 1194.304688 C 1025.179688 1194.527344 1025.925781 1194.710938 1026.675781 1194.863281 C 1027.429688 1195.011719 1028.1875 1195.125 1028.953125 1195.199219 C 1029.714844 1195.273438 1030.480469 1195.3125 1031.25 1195.3125 L 1101.5625 1195.3125 C 1102.332031 1195.3125 1103.097656 1195.273438 1103.859375 1195.199219 C 1104.625 1195.125 1105.382812 1195.011719 1106.132812 1194.863281 C 1106.886719 1194.710938 1107.632812 1194.527344 1108.367188 1194.304688 C 1109.101562 1194.082031 1109.824219 1193.820312 1110.53125 1193.527344 C 1111.242188 1193.234375 1111.933594 1192.90625 1112.609375 1192.542969 C 1113.289062 1192.183594 1113.945312 1191.789062 1114.582031 1191.363281 C 1115.222656 1190.9375 1115.835938 1190.480469 1116.429688 1189.992188 C 1117.023438 1189.503906 1117.59375 1188.992188 1118.136719 1188.449219 C 1118.679688 1187.90625 1119.191406 1187.335938 1119.679688 1186.742188 C 1120.167969 1186.148438 1120.625 1185.535156 1121.050781 1184.894531 C 1121.476562 1184.257812 1121.871094 1183.601562 1122.230469 1182.921875 C 1122.59375 1182.246094 1122.921875 1181.554688 1123.214844 1180.84375 C 1123.507812 1180.136719 1123.769531 1179.414062 1123.992188 1178.679688 C 1124.214844 1177.945312 1124.398438 1177.199219 1124.550781 1176.445312 C 1124.699219 1175.695312 1124.8125 1174.9375 1124.886719 1174.171875 C 1124.960938 1173.410156 1125 1172.640625 1125 1171.875 C 1125 1171.105469 1124.960938 1170.339844 1124.886719 1169.578125 C 1124.8125 1168.8125 1124.699219 1168.054688 1124.550781 1167.300781 C 1124.398438 1166.550781 1124.214844 1165.804688 1123.992188 1165.070312 C 1123.769531 1164.335938 1123.507812 1163.613281 1123.214844 1162.90625 C 1122.921875 1162.195312 1122.59375 1161.503906 1122.230469 1160.828125 C 1121.871094 1160.148438 1121.476562 1159.492188 1121.050781 1158.855469 C 1120.625 1158.214844 1120.167969 1157.601562 1119.679688 1157.007812 C 1119.191406 1156.414062 1118.679688 1155.84375 1118.136719 1155.300781 C 1117.59375 1154.757812 1117.023438 1154.246094 1116.429688 1153.757812 C 1115.835938 1153.269531 1115.222656 1152.8125 1114.582031 1152.386719 C 1113.945312 1151.960938 1113.289062 1151.566406 1112.609375 1151.203125 C 1111.933594 1150.84375 1111.242188 1150.515625 1110.53125 1150.222656 C 1109.824219 1149.925781 1109.101562 1149.667969 1108.367188 1149.445312 C 1107.632812 1149.222656 1106.886719 1149.039062 1106.136719 1148.886719 C 1105.382812 1148.738281 1104.625 1148.625 1103.859375 1148.550781 C 1103.097656 1148.476562 1102.332031 1148.4375 1101.5625 1148.4375 L 1054.6875 1148.4375 L 1054.6875 1078.125 C 1054.6875 1077.355469 1054.648438 1076.589844 1054.574219 1075.828125 C 1054.5 1075.0625 1054.386719 1074.304688 1054.238281 1073.550781 C 1054.085938 1072.800781 1053.902344 1072.054688 1053.679688 1071.320312 C 1053.457031 1070.585938 1053.195312 1069.863281 1052.902344 1069.15625 C 1052.609375 1068.445312 1052.28125 1067.753906 1051.921875 1067.078125 C 1051.558594 1066.398438 1051.164062 1065.742188 1050.738281 1065.105469 C 1050.3125 1064.464844 1049.855469 1063.851562 1049.367188 1063.257812 C 1048.878906 1062.664062 1048.367188 1062.09375 1047.824219 1061.550781 C 1047.28125 1061.007812 1046.710938 1060.496094 1046.117188 1060.007812 C 1045.523438 1059.519531 1044.910156 1059.0625 1044.269531 1058.636719 C 1043.632812 1058.210938 1042.976562 1057.816406 1042.296875 1057.453125 C 1041.621094 1057.09375 1040.929688 1056.765625 1040.21875 1056.472656 C 1039.511719 1056.175781 1038.789062 1055.917969 1038.054688 1055.695312 C 1037.320312 1055.472656 1036.574219 1055.289062 1035.824219 1055.136719 C 1035.070312 1054.988281 1034.3125 1054.875 1033.546875 1054.800781 C 1032.785156 1054.726562 1032.015625 1054.6875 1031.25 1054.6875 Z M 789.609375 1265.625 C 789.609375 1266.390625 789.570312 1267.15625 789.496094 1267.921875 C 789.421875 1268.6875 789.308594 1269.445312 789.160156 1270.195312 C 789.007812 1270.949219 788.824219 1271.695312 788.601562 1272.429688 C 788.378906 1273.164062 788.117188 1273.882812 787.824219 1274.59375 C 787.53125 1275.304688 787.203125 1275.996094 786.839844 1276.671875 C 786.480469 1277.351562 786.085938 1278.007812 785.660156 1278.644531 C 785.234375 1279.285156 784.777344 1279.898438 784.289062 1280.492188 C 783.800781 1281.085938 783.289062 1281.65625 782.746094 1282.199219 C 782.203125 1282.742188 781.632812 1283.253906 781.039062 1283.742188 C 780.445312 1284.230469 779.832031 1284.6875 779.191406 1285.113281 C 778.554688 1285.539062 777.898438 1285.933594 777.21875 1286.292969 C 776.542969 1286.65625 775.851562 1286.984375 775.140625 1287.277344 C 774.433594 1287.570312 773.710938 1287.832031 772.976562 1288.054688 C 772.242188 1288.277344 771.496094 1288.460938 770.746094 1288.613281 C 769.992188 1288.761719 769.234375 1288.875 768.46875 1288.949219 C 767.707031 1289.023438 766.941406 1289.0625 766.171875 1289.0625 L 281.25 1289.0625 C 280.484375 1289.0625 279.714844 1289.023438 278.953125 1288.949219 C 278.1875 1288.875 277.429688 1288.761719 276.675781 1288.613281 C 275.925781 1288.460938 275.179688 1288.277344 274.445312 1288.054688 C 273.710938 1287.832031 272.988281 1287.570312 272.28125 1287.277344 C 271.570312 1286.984375 270.878906 1286.65625 270.203125 1286.292969 C 269.523438 1285.933594 268.867188 1285.539062 268.230469 1285.113281 C 267.589844 1284.6875 266.976562 1284.230469 266.382812 1283.742188 C 265.789062 1283.253906 265.21875 1282.742188 264.675781 1282.199219 C 264.132812 1281.65625 263.621094 1281.085938 263.132812 1280.492188 C 262.644531 1279.898438 262.1875 1279.285156 261.761719 1278.644531 C 261.335938 1278.007812 260.941406 1277.351562 260.578125 1276.671875 C 260.21875 1275.996094 259.890625 1275.304688 259.597656 1274.59375 C 259.304688 1273.882812 259.042969 1273.164062 258.820312 1272.429688 C 258.597656 1271.695312 258.414062 1270.949219 258.261719 1270.195312 C 258.113281 1269.445312 258 1268.6875 257.925781 1267.921875 C 257.851562 1267.15625 257.8125 1266.390625 257.8125 1265.625 L 257.8125 140.625 C 257.8125 139.855469 257.851562 139.089844 257.925781 138.328125 C 258 137.5625 258.113281 136.804688 258.261719 136.050781 C 258.414062 135.300781 258.597656 134.554688 258.820312 133.820312 C 259.042969 133.085938 259.304688 132.363281 259.597656 131.65625 C 259.890625 130.945312 260.21875 130.253906 260.578125 129.578125 C 260.941406 128.898438 261.335938 128.242188 261.761719 127.605469 C 262.1875 126.964844 262.644531 126.351562 263.132812 125.757812 C 263.621094 125.164062 264.132812 124.59375 264.675781 124.050781 C 265.21875 123.507812 265.789062 122.996094 266.382812 122.507812 C 266.976562 122.019531 267.589844 121.5625 268.230469 121.136719 C 268.867188 120.710938 269.523438 120.316406 270.203125 119.953125 C 270.878906 119.59375 271.570312 119.265625 272.28125 118.972656 C 272.988281 118.679688 273.710938 118.417969 274.445312 118.195312 C 275.179688 117.972656 275.925781 117.789062 276.675781 117.636719 C 277.429688 117.488281 278.1875 117.375 278.953125 117.300781 C 279.714844 117.226562 280.480469 117.1875 281.25 117.1875 L 937.5 117.1875 C 940.664062 117.246094 943.710938 117.871094 946.640625 119.0625 C 949.460938 120.214844 951.960938 121.855469 954.140625 123.984375 L 1141.640625 311.484375 C 1143.835938 313.710938 1145.476562 316.289062 1146.5625 319.21875 C 1147.773438 322.0625 1148.398438 325.03125 1148.4375 328.125 L 1148.4375 906.796875 C 1148.4375 907.5625 1148.398438 908.332031 1148.324219 909.09375 C 1148.25 909.859375 1148.136719 910.617188 1147.988281 911.367188 C 1147.835938 912.121094 1147.652344 912.867188 1147.429688 913.601562 C 1147.207031 914.335938 1146.945312 915.054688 1146.652344 915.765625 C 1146.359375 916.476562 1146.03125 917.167969 1145.671875 917.84375 C 1145.308594 918.523438 1144.914062 919.179688 1144.488281 919.816406 C 1144.0625 920.457031 1143.605469 921.070312 1143.117188 921.664062 C 1142.628906 922.257812 1142.117188 922.828125 1141.574219 923.371094 C 1141.03125 923.914062 1140.460938 924.425781 1139.867188 924.914062 C 1139.273438 925.402344 1138.660156 925.859375 1138.019531 926.285156 C 1137.382812 926.710938 1136.726562 927.105469 1136.046875 927.464844 C 1135.371094 927.828125 1134.679688 928.15625 1133.96875 928.449219 C 1133.261719 928.742188 1132.539062 929.003906 1131.804688 929.226562 C 1131.070312 929.449219 1130.324219 929.632812 1129.574219 929.785156 C 1128.820312 929.933594 1128.0625 930.046875 1127.296875 930.121094 C 1126.535156 930.195312 1125.769531 930.234375 1125 930.234375 C 1124.230469 930.234375 1123.464844 930.195312 1122.703125 930.121094 C 1121.9375 930.046875 1121.179688 929.933594 1120.425781 929.785156 C 1119.675781 929.632812 1118.929688 929.449219 1118.195312 929.226562 C 1117.460938 929.003906 1116.738281 928.742188 1116.03125 928.449219 C 1115.320312 928.15625 1114.628906 927.828125 1113.953125 927.464844 C 1113.273438 927.105469 1112.617188 926.710938 1111.980469 926.285156 C 1111.339844 925.859375 1110.726562 925.402344 1110.132812 924.914062 C 1109.539062 924.425781 1108.96875 923.914062 1108.425781 923.371094 C 1107.882812 922.828125 1107.371094 922.257812 1106.882812 921.664062 C 1106.394531 921.070312 1105.9375 920.457031 1105.511719 919.816406 C 1105.085938 919.179688 1104.691406 918.523438 1104.328125 917.84375 C 1103.96875 917.167969 1103.640625 916.476562 1103.347656 915.765625 C 1103.050781 915.054688 1102.792969 914.335938 1102.570312 913.601562 C 1102.347656 912.867188 1102.164062 912.121094 1102.011719 911.367188 C 1101.863281 910.617188 1101.75 909.859375 1101.675781 909.09375 C 1101.601562 908.332031 1101.5625 907.5625 1101.5625 906.796875 L 1101.5625 351.5625 L 937.5 351.5625 C 936.730469 351.5625 935.964844 351.523438 935.203125 351.449219 C 934.4375 351.375 933.679688 351.261719 932.925781 351.113281 C 932.175781 350.960938 931.429688 350.777344 930.695312 350.554688 C 929.960938 350.332031 929.238281 350.070312 928.53125 349.777344 C 927.820312 349.484375 927.128906 349.15625 926.453125 348.796875 C 925.773438 348.433594 925.117188 348.039062 924.480469 347.613281 C 923.839844 347.1875 923.226562 346.730469 922.632812 346.242188 C 922.039062 345.753906 921.46875 345.242188 920.925781 344.699219 C 920.382812 344.15625 919.871094 343.585938 919.382812 342.992188 C 918.894531 342.398438 918.4375 341.785156 918.011719 341.144531 C 917.585938 340.507812 917.191406 339.851562 916.828125 339.171875 C 916.46875 338.496094 916.140625 337.804688 915.847656 337.09375 C 915.550781 336.386719 915.292969 335.664062 915.070312 334.929688 C 914.847656 334.195312 914.664062 333.449219 914.511719 332.699219 C 914.363281 331.945312 914.25 331.1875 914.175781 330.421875 C 914.101562 329.660156 914.0625 328.890625 914.0625 328.125 L 914.0625 164.0625 L 304.6875 164.0625 L 304.6875 1242.1875 L 766.171875 1242.1875 C 766.941406 1242.1875 767.707031 1242.226562 768.46875 1242.300781 C 769.234375 1242.375 769.992188 1242.488281 770.746094 1242.636719 C 771.496094 1242.789062 772.242188 1242.972656 772.976562 1243.195312 C 773.710938 1243.417969 774.433594 1243.675781 775.140625 1243.972656 C 775.851562 1244.265625 776.542969 1244.59375 777.21875 1244.953125 C 777.898438 1245.316406 778.554688 1245.710938 779.191406 1246.136719 C 779.832031 1246.5625 780.445312 1247.019531 781.039062 1247.507812 C 781.632812 1247.996094 782.203125 1248.507812 782.746094 1249.050781 C 783.289062 1249.59375 783.800781 1250.164062 784.289062 1250.757812 C 784.777344 1251.347656 785.234375 1251.964844 785.660156 1252.601562 C 786.085938 1253.242188 786.480469 1253.898438 786.839844 1254.578125 C 787.203125 1255.253906 787.53125 1255.945312 787.824219 1256.65625 C 788.117188 1257.363281 788.378906 1258.085938 788.601562 1258.820312 C 788.824219 1259.554688 789.007812 1260.300781 789.160156 1261.050781 C 789.308594 1261.804688 789.421875 1262.5625 789.496094 1263.328125 C 789.570312 1264.089844 789.609375 1264.855469 789.609375 1265.625 Z M 960.9375 304.6875 L 1068.515625 304.6875 L 960.9375 197.109375 Z M 960.9375 304.6875 " fill-opacity="1" fill-rule="nonzero"/></svg>