<svg xmlns="http://www.w3.org/2000/svg" viewBox="0 0 64 64" x="0px" y="0px"><g data-name="history file"><path d="M53,50a9,9,0,0,1-16,5.62,1,1,0,1,1,1.56-1.24,7,7,0,1,0-1.4-5.75l.4-.4a1,1,0,0,1,1.41,0,1,1,0,0,1,0,1.42l-2.12,2.12a1,1,0,0,1-.71.29,1,1,0,0,1-.67-.27h0l-2.12-2.12a1,1,0,0,1,1.42-1.42l.4.41A9,9,0,0,1,53,50Zm-9-5a1,1,0,0,0-1,1v4a1,1,0,0,0,1,1h3a1,1,0,0,0,0-2H45V46A1,1,0,0,0,44,45ZM33.69,54a1,1,0,0,1-1,1H12a1,1,0,0,1-1-1V6a1,1,0,0,1,1-1H40a1.09,1.09,0,0,1,.39.08,1,1,0,0,1,.32.21l8,8a.93.93,0,0,1,.21.33A1,1,0,0,1,49,14V38.69a1,1,0,0,1-2,0V15H40a1,1,0,0,1-1-1V7H13V53H32.69A1,1,0,0,1,33.69,54ZM41,13h4.59L41,8.41Z"/></g></svg>