<?xml version="1.0" encoding="UTF-8" standalone="no"?><!DOCTYPE svg PUBLIC "-//W3C//DTD SVG 1.1//EN" "http://www.w3.org/Graphics/SVG/1.1/DTD/svg11.dtd"><svg width="100%" height="100%" viewBox="0 0 411 513" version="1.1" xmlns="http://www.w3.org/2000/svg" xmlns:xlink="http://www.w3.org/1999/xlink" xml:space="preserve" xmlns:serif="http://www.serif.com/" style="fill-rule:evenodd;clip-rule:evenodd;stroke-linejoin:round;stroke-miterlimit:2;"><g><path d="M411,252.644c-0.414,102.219 -84.008,186.097 -185.467,186.097c-55.987,0 -109.066,-25.541 -144.255,-69.413c-3.609,-3.852 -5.622,-8.954 -5.622,-14.252c0,-11.39 9.303,-20.762 20.608,-20.762c6.893,0 13.346,3.485 17.162,9.269c27.359,34.418 68.829,54.485 112.595,54.485c79.135,0 144.253,-65.607 144.253,-145.336c0,-79.729 -65.118,-145.336 -144.253,-145.336c-68.489,0 -128,49.143 -141.446,116.803l8.243,-8.305c7.985,-7.997 21.072,-7.997 29.057,0c3.9,3.897 6.096,9.207 6.096,14.741c0,5.534 -2.196,10.844 -6.096,14.741l-43.688,44.016c-3.888,3.885 -9.156,6.053 -14.631,6.021c-5.133,-0.07 -10.06,-2.07 -13.807,-5.606l-43.688,-44.016c-3.879,-3.908 -6.061,-9.214 -6.061,-14.741c0,-11.436 9.341,-20.847 20.692,-20.847c5.486,0 10.752,2.198 14.631,6.106l8.243,8.513c16.759,-87.602 93.566,-151.495 182.116,-151.495c98.921,0 181.323,79.734 185.317,179.316Z"/><path d="M225.532,148.833c11.305,0 20.608,9.372 20.608,20.762l0,62.287l41.215,0c11.305,0 20.608,9.372 20.608,20.762c0,11.39 -9.303,20.762 -20.608,20.762l-61.823,0c-11.305,0 -20.608,-9.372 -20.608,-20.762l0,-83.049c0,-11.39 9.303,-20.762 20.608,-20.762Z"/></g></svg>