<svg width="127" height="128" viewBox="0 0 127 128" fill="none" xmlns="http://www.w3.org/2000/svg">
<path fill-rule="evenodd" clip-rule="evenodd" d="M63.5525 0C28.4096 0 0 28.8444 0 64.5289C0 93.0534 18.203 117.199 43.4555 125.745C46.6127 126.387 47.7691 124.356 47.7691 122.648C47.7691 121.152 47.6651 116.024 47.6651 110.681C29.9863 114.528 26.3048 102.989 26.3048 102.989C23.4637 95.5104 19.2541 93.5883 19.2541 93.5883C13.4679 89.6353 19.6756 89.6353 19.6756 89.6353C26.0941 90.0627 29.462 96.2591 29.462 96.2591C35.1429 106.087 44.2971 103.31 47.9799 101.601C48.5054 97.4338 50.19 94.5494 51.9787 92.9472C37.8786 91.4512 23.0436 85.896 23.0436 61.1095C23.0436 54.0584 25.5672 48.2895 29.5661 43.8029C28.9352 42.2007 26.725 35.5757 30.1983 26.7086C30.1983 26.7086 35.5644 24.9989 47.6638 33.3323C52.8439 31.9198 58.1861 31.2013 63.5525 31.1952C68.9186 31.1952 74.3888 31.9439 79.44 33.3323C91.5407 24.9989 96.9068 26.7086 96.9068 26.7086C100.38 35.5757 98.1686 42.2007 97.5377 43.8029C101.642 48.2895 104.062 54.0584 104.062 61.1095C104.062 85.896 89.2264 91.3437 75.021 92.9472C77.3365 94.9768 79.3347 98.8223 79.3347 104.912C79.3347 113.566 79.2306 120.511 79.2306 122.646C79.2306 124.356 80.3884 126.387 83.5443 125.746C108.797 117.197 127 93.0534 127 64.5289C127.104 28.8444 98.5901 0 63.5525 0Z" fill="black"/>
</svg>
