<svg width="127" height="128" viewBox="0 0 127 128" fill="none" xmlns="http://www.w3.org/2000/svg">
<g clip-path="url(#clip0_3507_17)">
<path d="M63.5 11.525C80.4664 11.525 82.4756 11.6 89.1481 11.9C95.3492 12.175 98.6979 13.225 100.93 14.1C103.882 15.25 106.015 16.65 108.223 18.875C110.455 21.125 111.82 23.25 112.961 26.225C113.829 28.475 114.871 31.875 115.143 38.1C115.441 44.85 115.515 46.875 115.515 63.95C115.515 81.05 115.441 83.075 115.143 89.8C114.871 96.05 113.829 99.425 112.961 101.675C111.82 104.65 110.43 106.8 108.223 109.025C105.99 111.275 103.882 112.65 100.93 113.8C98.6979 114.675 95.3244 115.725 89.1481 116C82.4508 116.3 80.4416 116.375 63.5 116.375C46.5336 116.375 44.5244 116.3 37.852 116C31.6508 115.725 28.3021 114.675 26.0697 113.8C23.118 112.65 20.9848 111.25 18.7771 109.025C16.5447 106.775 15.1805 104.65 14.0395 101.675C13.1713 99.425 12.1295 96.025 11.8566 89.8C11.559 83.05 11.4846 81.025 11.4846 63.95C11.4846 46.85 11.559 44.825 11.8566 38.1C12.1295 31.85 13.1713 28.475 14.0395 26.225C15.1805 23.25 16.5695 21.1 18.7771 18.875C21.0096 16.625 23.118 15.25 26.0697 14.1C28.3021 13.225 31.6756 12.175 37.852 11.9C44.5244 11.6 46.5336 11.525 63.5 11.525ZM63.5 0C46.2607 0 44.1027 0.075 37.3311 0.375C30.5842 0.675 25.9457 1.775 21.9273 3.35C17.7354 5 14.1883 7.175 10.666 10.75C7.11895 14.3 4.96094 17.875 3.32383 22.075C1.76113 26.15 0.669727 30.8 0.37207 37.6C0.0744141 44.45 0 46.625 0 64C0 81.375 0.0744141 83.55 0.37207 90.375C0.669727 97.175 1.76113 101.85 3.32383 105.9C4.96094 110.125 7.11895 113.7 10.666 117.25C14.1883 120.8 17.7354 123 21.9025 124.625C25.9457 126.2 30.5594 127.3 37.3062 127.6C44.0779 127.9 46.2359 127.975 63.4752 127.975C80.7145 127.975 82.8725 127.9 89.6441 127.6C96.391 127.3 101.029 126.2 105.048 124.625C109.215 123 112.762 120.8 116.284 117.25C119.807 113.7 121.989 110.125 123.602 105.925C125.164 101.85 126.256 97.2 126.554 90.4C126.851 83.575 126.926 81.4 126.926 64.025C126.926 46.65 126.851 44.475 126.554 37.65C126.256 30.85 125.164 26.175 123.602 22.125C122.039 17.875 119.881 14.3 116.334 10.75C112.812 7.2 109.265 5 105.097 3.375C101.054 1.8 96.4406 0.7 89.6938 0.4C82.8973 0.075 80.7393 0 63.5 0Z" fill="black"/>
<path d="M63.5 31.125C45.4918 31.125 30.8818 45.85 30.8818 64C30.8818 82.15 45.4918 96.875 63.5 96.875C81.5082 96.875 96.1182 82.15 96.1182 64C96.1182 45.85 81.5082 31.125 63.5 31.125ZM63.5 85.325C51.817 85.325 42.3416 75.775 42.3416 64C42.3416 52.225 51.817 42.675 63.5 42.675C75.183 42.675 84.6584 52.225 84.6584 64C84.6584 75.775 75.183 85.325 63.5 85.325Z" fill="black"/>
<path d="M105.023 29.825C105.023 34.075 101.6 37.5 97.408 37.5C93.1912 37.5 89.793 34.05 89.793 29.825C89.793 25.575 93.216 22.15 97.408 22.15C101.6 22.15 105.023 25.6 105.023 29.825Z" fill="black"/>
</g>
<defs>
<clipPath id="clip0_3507_17">
<rect width="127" height="128" fill="white"/>
</clipPath>
</defs>
</svg>
