<svg width="128" height="85" viewBox="0 0 128 85" fill="none" xmlns="http://www.w3.org/2000/svg">
<g clip-path="url(#clip0_3507_28)">
<path d="M98.4965 0V2.24488C95.5354 2.77079 93.2941 3.7011 91.7726 5.03582C89.5929 7.01786 87.0229 10.0515 85.3369 14.1367L51.0327 84.1528H48.7503L14.3123 13.2266C12.7084 9.58633 10.5279 7.36167 9.86995 6.55263C8.84182 5.29881 7.57723 4.31794 6.07619 3.61002C4.57512 2.90225 2.54973 2.4472 0 2.24488V0H33.5091V2.24488C29.6433 2.609 27.8003 3.25617 26.6489 4.1864C25.4973 5.11679 24.9216 6.31002 24.9216 7.76608C24.9216 9.78857 25.8675 12.9435 27.7592 17.231L53.1917 65.4656L78.0578 17.8377C79.9906 13.1458 81.5942 9.88969 81.5942 8.06944C81.5942 6.89652 80.9978 5.77408 79.8053 4.70212C78.6126 3.63032 77.2631 2.87191 74.4256 2.4269C74.2199 2.38653 73.8703 2.32586 73.3769 2.24488V0H98.4965Z" fill="black"/>
<path d="M128 0V2.24488C125.039 2.77079 122.798 3.7011 121.276 5.03582C119.096 7.01786 116.526 10.0515 114.84 14.1367L84.7342 84.1528H82.4518L50.6376 13.2266C49.0338 9.58633 46.8533 7.36167 46.1953 6.55263C45.1672 5.29881 43.9026 4.31794 42.4016 3.61002C40.9005 2.90225 39.5407 2.4472 36.991 2.24488V0H69.8345V2.24488C65.9687 2.609 64.1257 3.25617 62.9742 4.1864C61.8227 5.11679 61.247 6.31002 61.247 7.76608C61.247 9.78857 62.1928 12.9435 64.0846 17.231L86.8933 65.4656L107.561 17.8377C109.494 13.1458 111.098 9.88969 111.098 8.06944C111.098 6.89652 110.501 5.77408 109.309 4.70212C108.116 3.63032 106.101 2.87191 103.263 2.4269C103.058 2.38653 102.708 2.32586 102.215 2.24488V0H128Z" fill="black"/>
</g>
<defs>
<clipPath id="clip0_3507_28">
<rect width="128" height="85" fill="white"/>
</clipPath>
</defs>
</svg>
